<?xml version="1.0" encoding="UTF-8" standalone="no"?>
<!-- Created with Inkscape (http://www.inkscape.org/) -->

<svg
   xmlns:osb="http://www.openswatchbook.org/uri/2009/osb"
   xmlns:dc="http://purl.org/dc/elements/1.1/"
   xmlns:cc="http://creativecommons.org/ns#"
   xmlns:rdf="http://www.w3.org/1999/02/22-rdf-syntax-ns#"
   xmlns:svg="http://www.w3.org/2000/svg"
   xmlns="http://www.w3.org/2000/svg"
   xmlns:xlink="http://www.w3.org/1999/xlink"
   xmlns:sodipodi="http://sodipodi.sourceforge.net/DTD/sodipodi-0.dtd"
   xmlns:inkscape="http://www.inkscape.org/namespaces/inkscape"
   width="210mm"
   height="297mm"
   viewBox="0 0 210 297"
   version="1.1"
   id="svg8"
   inkscape:version="0.92.4 (5da689c313, 2019-01-14)"
   sodipodi:docname="sunbelt_logo_v1.svg">
  <defs
     id="defs2">
    <linearGradient
       inkscape:collect="always"
       id="linearGradient2551">
      <stop
         style="stop-color:#ff651d;stop-opacity:1;"
         offset="0"
         id="stop2547" />
      <stop
         style="stop-color:#ff651d;stop-opacity:0;"
         offset="1"
         id="stop2549" />
    </linearGradient>
    <linearGradient
       id="linearGradient2543"
       osb:paint="solid">
      <stop
         style="stop-color:#ff651d;stop-opacity:1;"
         offset="0"
         id="stop2541" />
    </linearGradient>
    <inkscape:path-effect
       effect="taper_stroke"
       id="path-effect4799"
       is_visible="true"
       stroke_width="2.7920403"
       attach_start="0.2"
       end_offset="0.2"
       smoothing="0.5"
       jointype="extrapolated"
       miter_limit="100" />
    <linearGradient
       inkscape:collect="always"
       xlink:href="#linearGradient2551"
       id="linearGradient2601"
       gradientUnits="userSpaceOnUse"
       x1="76.6847"
       y1="142.56833"
       x2="126.674"
       y2="142.56833"
       gradientTransform="translate(0.267067,-0.878216)" />
    <linearGradient
       inkscape:collect="always"
       xlink:href="#linearGradient2551"
       id="linearGradient2609"
       gradientUnits="userSpaceOnUse"
       x1="76.6847"
       y1="142.56833"
       x2="126.674"
       y2="142.56833"
       gradientTransform="translate(0.267076,-0.878219)" />
  </defs>
  <sodipodi:namedview
     id="base"
     pagecolor="#ffffff"
     bordercolor="#666666"
     borderopacity="1.0"
     inkscape:pageopacity="0.0"
     inkscape:pageshadow="2"
     inkscape:zoom="1.4"
     inkscape:cx="1075.9388"
     inkscape:cy="691.3571"
     inkscape:document-units="mm"
     inkscape:current-layer="layer1"
     showgrid="false"
     inkscape:window-width="3840"
     inkscape:window-height="2054"
     inkscape:window-x="-11"
     inkscape:window-y="-11"
     inkscape:window-maximized="1"
     showguides="false" />
  <metadata
     id="metadata5">
    <rdf:RDF>
      <cc:Work
         rdf:about="">
        <dc:format>image/svg+xml</dc:format>
        <dc:type
           rdf:resource="http://purl.org/dc/dcmitype/StillImage" />
        <dc:title></dc:title>
      </cc:Work>
    </rdf:RDF>
  </metadata>
  <g
     inkscape:label="Layer 1"
     inkscape:groupmode="layer"
     id="layer1">
    <path
       inkscape:connector-curvature="0"
       d="m 82.218587,161.25089 -3.908817,-10.12283 0.167045,-10.35669 5.479026,-9.82216 7.34991,-5.87993 6.681738,-2.87315 7.116051,-0.0668 c 0,0 5.51243,2.00452 5.84652,2.00452 0.33409,0 7.04924,4.47676 7.04924,4.47676 l 4.00904,5.67948 3.57473,9.92238 -0.56795,9.02035 -2.57247,6.44787 c 0,0 -1.50339,1.26954 -3.0736,1.23613 -1.57021,-0.0334 -30.702586,-0.40091 -30.969855,-0.40091 -0.267269,0 -6.180608,0.73499 -6.180608,0.73499 z"
       style="opacity:0.98500001;fill:url(#linearGradient2601);fill-opacity:1;stroke:#008bf3;stroke-width:2.71599984;stroke-linecap:round;stroke-linejoin:round;stroke-miterlimit:4;stroke-dasharray:none;stroke-dashoffset:0;stroke-opacity:0.00975611;paint-order:markers stroke fill"
       id="path2599"
       inkscape:export-xdpi="96"
       inkscape:export-ydpi="96" />
    <path
       inkscape:connector-curvature="0"
       d="m 82.218586,161.25089 -3.90881,-10.12283 0.16704,-10.35669 5.47903,-9.82216 7.349908,-5.87993 6.681738,-2.87315 7.116048,-0.0668 c 0,0 5.51243,2.00452 5.84652,2.00452 0.33409,0 7.04924,4.47676 7.04924,4.47676 l 4.00904,5.67948 3.57473,9.92238 -0.56795,9.02035 -2.57247,6.44787 c 0,0 -1.50339,1.26954 -3.0736,1.23613 -1.57021,-0.0334 -30.702584,-0.40091 -30.969854,-0.40091 -0.26727,0 -6.18061,0.73499 -6.18061,0.73499 z"
       style="opacity:0.98500001;fill:url(#linearGradient2609);fill-opacity:1;stroke:#008bf3;stroke-width:2.71599984;stroke-linecap:round;stroke-linejoin:round;stroke-miterlimit:4;stroke-dasharray:none;stroke-dashoffset:0;stroke-opacity:0.00975611;paint-order:markers stroke fill"
       id="path2607"
       inkscape:export-xdpi="96"
       inkscape:export-ydpi="96" />
    <path
       style="opacity:1;fill:#2d2d12;fill-opacity:1;stroke:none;stroke-width:0.37795276;stroke-linecap:round;stroke-linejoin:round;stroke-miterlimit:4;stroke-dasharray:none;stroke-dashoffset:0;stroke-opacity:0.00975611;paint-order:markers stroke fill"
       d="m 384.28516,460.30469 c -4.71487,-0.0271 -9.4904,0.31747 -14.29688,1.05664 -51.26914,7.88451 -86.9835,57.76157 -79.54101,111.34765 1.52416,10.97402 4.78541,21.34162 9.4707,30.8086 H 65.216797 c -3.762854,0 -6.791016,3.02816 -6.791016,6.79101 v 0.002 c 0,3.76285 3.028162,6.79101 6.791016,6.79101 H 706.79102 c 3.76285,0 6.79296,-3.02816 6.79296,-6.79101 v -0.002 c 0,-3.76285 -3.03011,-6.79101 -6.79296,-6.79101 H 466.77539 c 8.90961,-17.84859 12.61006,-38.5301 9.70899,-59.41797 -6.74476,-48.5624 -46.62221,-83.53314 -92.19922,-83.79492 z m -0.0156,10.24219 c 41.00928,0.2015 76.61805,31.51819 82.66016,75.02148 2.85865,20.58241 -1.422,40.94331 -11.2461,57.94922 h -144.7051 c -5.54627,-9.69588 -9.35538,-20.60478 -10.97657,-32.27735 -6.66715,-48.00362 25.19521,-92.63148 71.39453,-99.73632 4.33119,-0.66608 8.63071,-0.97788 12.87305,-0.95703 z"
       id="rect840"
       inkscape:connector-curvature="0"
       transform="scale(0.26458333)"
       inkscape:export-xdpi="96"
       inkscape:export-ydpi="96" />
    <rect
       style="opacity:1;fill:#2d2d12;fill-opacity:1;stroke:none;stroke-width:0.67622846;stroke-linecap:round;stroke-linejoin:round;stroke-miterlimit:4;stroke-dasharray:none;stroke-dashoffset:0;stroke-opacity:0.00975611;paint-order:markers stroke fill"
       id="rect840-1"
       width="35.219643"
       height="1.2225752"
       x="84.115082"
       y="157.9335"
       ry="0.61128688"
       inkscape:export-xdpi="96"
       inkscape:export-ydpi="96" />
    <rect
       style="opacity:1;fill:#2d2d12;fill-opacity:1;stroke:none;stroke-width:0.68314451;stroke-linecap:round;stroke-linejoin:round;stroke-miterlimit:4;stroke-dasharray:none;stroke-dashoffset:0;stroke-opacity:0.00975611;paint-order:markers stroke fill"
       id="rect840-1-0"
       width="37.300388"
       height="1.178109"
       x="82.956375"
       y="156.03239"
       ry="0.58905393"
       inkscape:export-xdpi="96"
       inkscape:export-ydpi="96" />
    <rect
       style="opacity:1;fill:#2d2d12;fill-opacity:1;stroke:none;stroke-width:0.66654253;stroke-linecap:round;stroke-linejoin:round;stroke-miterlimit:4;stroke-dasharray:none;stroke-dashoffset:0;stroke-opacity:0.00975611;paint-order:markers stroke fill"
       id="rect840-1-0-5"
       width="37.565804"
       height="1.1136192"
       x="82.122086"
       y="153.70782"
       ry="0.55680895"
       inkscape:export-xdpi="96"
       inkscape:export-ydpi="96" />
    <rect
       style="opacity:1;fill:#2d2d12;fill-opacity:1;stroke:none;stroke-width:0.64379144;stroke-linecap:round;stroke-linejoin:round;stroke-miterlimit:4;stroke-dasharray:none;stroke-dashoffset:0;stroke-opacity:0.00975611;paint-order:markers stroke fill"
       id="rect840-1-0-5-1"
       width="36.570465"
       height="1.0671701"
       x="81.450455"
       y="150.97403"
       ry="0.53358442"
       inkscape:export-xdpi="96"
       inkscape:export-ydpi="96" />
    <rect
       style="opacity:1;fill:#2d2d12;fill-opacity:1;stroke:none;stroke-width:0.48023084;stroke-linecap:round;stroke-linejoin:round;stroke-miterlimit:4;stroke-dasharray:none;stroke-dashoffset:0;stroke-opacity:0.00975611;paint-order:markers stroke fill"
       id="rect840-1-0-5-1-9"
       width="23.494286"
       height="0.92429703"
       x="81.100395"
       y="147.56351"
       ry="0.46214798"
       inkscape:export-xdpi="96"
       inkscape:export-ydpi="96" />
    <rect
       style="opacity:1;fill:#2d2d12;fill-opacity:1;stroke:none;stroke-width:0.39278296;stroke-linecap:round;stroke-linejoin:round;stroke-miterlimit:4;stroke-dasharray:none;stroke-dashoffset:0;stroke-opacity:0.00975611;paint-order:markers stroke fill"
       id="rect840-1-0-5-1-9-4"
       width="17.969646"
       height="0.80842447"
       x="81.434624"
       y="143.84801"
       ry="0.40421185"
       inkscape:export-xdpi="96"
       inkscape:export-ydpi="96" />
    <rect
       style="opacity:1;fill:#2d2d12;fill-opacity:1;stroke:none;stroke-width:0.32608357;stroke-linecap:round;stroke-linejoin:round;stroke-miterlimit:4;stroke-dasharray:none;stroke-dashoffset:0;stroke-opacity:0.00975611;paint-order:markers stroke fill"
       id="rect840-1-0-5-1-9-4-5"
       width="13.741722"
       height="0.72860223"
       x="82.601219"
       y="139.54744"
       ry="0.3643007"
       inkscape:export-xdpi="96"
       inkscape:export-ydpi="96" />
    <rect
       style="opacity:1;fill:#2d2d12;fill-opacity:1;stroke:none;stroke-width:0.24396719;stroke-linecap:round;stroke-linejoin:round;stroke-miterlimit:4;stroke-dasharray:none;stroke-dashoffset:0;stroke-opacity:0.00975611;paint-order:markers stroke fill"
       id="rect840-1-0-5-1-9-4-5-0"
       width="9.6006632"
       height="0.58376157"
       x="84.854332"
       y="135.21103"
       ry="0.29188043"
       inkscape:export-xdpi="96"
       inkscape:export-ydpi="96" />
    <rect
       style="opacity:1;fill:#2d2d12;fill-opacity:1;stroke:none;stroke-width:2.50803518;stroke-linecap:round;stroke-linejoin:round;stroke-miterlimit:4;stroke-dasharray:none;stroke-dashoffset:0;stroke-opacity:0.00975611;paint-order:markers stroke fill"
       id="rect840-6"
       width="151.48691"
       height="3.9099021"
       x="25.384649"
       y="189.77957"
       ry="1.9549487"
       inkscape:export-xdpi="96"
       inkscape:export-ydpi="96" />
    <rect
       style="opacity:1;fill:#2d2d12;fill-opacity:1;stroke:none;stroke-width:0;stroke-linecap:round;stroke-linejoin:round;stroke-miterlimit:4;stroke-dasharray:none;stroke-dashoffset:0;stroke-opacity:0.00975611;paint-order:markers stroke fill"
       id="rect840-6-2"
       width="73.306755"
       height="3.72225"
       x="38.516178"
       y="197.96121"
       ry="1.8611227"
       inkscape:export-xdpi="96"
       inkscape:export-ydpi="96" />
    <rect
       style="opacity:1;fill:#2d2d12;fill-opacity:1;stroke:none;stroke-width:1.32372224;stroke-linecap:round;stroke-linejoin:round;stroke-miterlimit:4;stroke-dasharray:none;stroke-dashoffset:0;stroke-opacity:0.00975611;paint-order:markers stroke fill"
       id="rect840-6-2-2"
       width="44.629337"
       height="3.6969798"
       x="121.97747"
       y="198.41698"
       ry="1.8484876"
       inkscape:export-xdpi="96"
       inkscape:export-ydpi="96" />
    <rect
       style="opacity:1;fill:#2d2d12;fill-opacity:1;stroke:none;stroke-width:0.84115088;stroke-linecap:round;stroke-linejoin:round;stroke-miterlimit:4;stroke-dasharray:none;stroke-dashoffset:0;stroke-opacity:0.00975611;paint-order:markers stroke fill"
       id="rect840-6-2-5"
       width="19.850954"
       height="3.3561404"
       x="65.377716"
       y="206.05585"
       ry="1.6780682"
       inkscape:export-xdpi="96"
       inkscape:export-ydpi="96" />
    <rect
       style="opacity:1;fill:#2d2d12;fill-opacity:1;stroke:none;stroke-width:0.56363946;stroke-linecap:round;stroke-linejoin:round;stroke-miterlimit:4;stroke-dasharray:none;stroke-dashoffset:0;stroke-opacity:0.00975611;paint-order:markers stroke fill"
       id="rect840-6-2-5-7"
       width="9.4287586"
       height="3.1726487"
       x="88.362228"
       y="206.18188"
       ry="1.5863227"
       inkscape:export-xdpi="96"
       inkscape:export-ydpi="96" />
    <rect
       style="opacity:1;fill:#2d2d12;fill-opacity:1;stroke:none;stroke-width:1.12188363;stroke-linecap:round;stroke-linejoin:round;stroke-miterlimit:4;stroke-dasharray:none;stroke-dashoffset:0;stroke-opacity:0.00975611;paint-order:markers stroke fill"
       id="rect840-6-2-5-8"
       width="38.105839"
       height="3.1101248"
       x="100.21611"
       y="206.17198"
       ry="1.5550604"
       inkscape:export-xdpi="96"
       inkscape:export-ydpi="96" />
    <rect
       style="opacity:1;fill:#2d2d12;fill-opacity:1;stroke:none;stroke-width:0.76440799;stroke-linecap:round;stroke-linejoin:round;stroke-miterlimit:4;stroke-dasharray:none;stroke-dashoffset:0;stroke-opacity:0.00975611;paint-order:markers stroke fill"
       id="rect840-6-2-5-8-0"
       width="28.211502"
       height="1.9502846"
       x="79.807571"
       y="214.41389"
       ry="0.97514105"
       inkscape:export-xdpi="96"
       inkscape:export-ydpi="96" />
    <rect
       style="opacity:1;fill:#2d2d12;fill-opacity:1;stroke:none;stroke-width:0.48906738;stroke-linecap:round;stroke-linejoin:round;stroke-miterlimit:4;stroke-dasharray:none;stroke-dashoffset:0;stroke-opacity:0.00975611;paint-order:markers stroke fill"
       id="rect840-6-2-5-8-0-4"
       width="10.887415"
       height="2.0686474"
       x="111.88803"
       y="214.21458"
       ry="1.0343221"
       inkscape:export-xdpi="96"
       inkscape:export-ydpi="96" />
    <text
       xml:space="preserve"
       style="font-style:normal;font-weight:normal;font-size:20.68190575px;line-height:1.25;font-family:sans-serif;letter-spacing:0px;word-spacing:0px;fill:#000000;fill-opacity:1;stroke:none;stroke-width:0.51704764"
       x="-0.10125674"
       y="195.43669"
       id="text4810"
       transform="scale(1.0687152,0.93570298)"
       inkscape:export-xdpi="96"
       inkscape:export-ydpi="96"><tspan
         sodipodi:role="line"
         id="tspan4808"
         x="-0.10125674"
         y="195.43669"
         style="font-style:normal;font-variant:normal;font-weight:normal;font-stretch:normal;font-family:Ebrima;-inkscape-font-specification:Ebrima;fill:#2d2d12;fill-opacity:1;stroke-width:0.51704764">Sunbelt Patio Covers</tspan></text>
    <path
       style="fill:#2d2d12;fill-opacity:1;stroke-width:0.28222224"
       d="m 130.26124,156.72829 c -0.43809,-1.14162 0.63562,-1.09355 33.30058,-1.05102 27.56734,0.0359 31.43323,0.0926 31.80741,0.4668 0.23427,0.23427 0.33993,0.56514 0.23479,0.73526 -0.13677,0.22129 -9.22345,0.3093 -31.93337,0.3093 -28.0737,0 -31.6735,0.0619 -33.40941,-0.46034 z M 9.9997345,156.169 c -0.17047,-0.2054 -0.09879,-0.45267 0.2041015,-0.70404 0.692562,-0.57478 29.996939,-0.68032 30.768199,-0.11082 1.288223,0.95123 0.218539,1.02615 -15.409881,1.07937 -11.020338,0.0375 -15.373161,-0.0365 -15.5624195,-0.26451 z m 33.5521185,-0.0387 c -0.204642,-0.24675 -0.186983,-0.48002 0.05876,-0.77611 0.303336,-0.3655 2.195128,-0.42334 13.84679,-0.42334 13.637362,0 15.450766,0.0933 14.493863,1.03005 -0.550632,0.53901 -27.958462,0.70107 -28.399409,0.1694 z m 88.245487,-4.61043 c -0.1042,-0.32832 0.61998,-0.56769 0.75178,-0.69526 0.32519,-0.31467 2.6402,-0.86587 4.47701,-1.39459 0.85372,-0.10226 2.88572,-0.4889 4.51555,-0.85918 6.26988,-1.42448 10.98034,-2.38888 11.66803,-2.38888 0.39404,0 0.80246,0.13919 0.9076,0.30931 0.40828,0.6606 -0.75188,1.17946 -3.7274,1.66701 -1.68447,0.276 -3.82467,0.69777 -4.75601,0.93726 -0.93133,0.23949 -4.28925,0.95936 -7.46204,1.59969 -3.17279,0.64034 -5.8624,1.22216 -5.9769,1.29292 -0.39762,-0.46828 -0.29341,-0.13995 -0.39762,-0.46828 z m -61.722124,-0.69849 c -0.186524,-0.18652 -5.064884,-0.96176 -10.635276,-1.6901 -3.952946,-0.51686 -4.822664,-0.76915 -4.822664,-1.39897 0,-0.73493 0.650508,-0.76207 3.846528,-0.16047 4.044309,0.76127 10.402677,1.71457 11.43596,1.71457 0.957394,0 1.360703,0.69331 0.755416,1.2986 -0.224494,0.22449 -0.485476,0.33086 -0.579964,0.23637 z M 48.922271,146.884 c -0.08472,-0.0847 -2.044756,-0.53169 -4.355628,-0.99326 -2.310875,-0.46157 -4.963589,-1.02239 -5.894923,-1.24628 -0.931333,-0.22388 -3.248507,-0.73401 -5.149274,-1.13361 -8.492822,-1.78547 -10.51179,-2.22246 -12.630725,-2.7338 -1.241778,-0.29967 -3.210278,-0.72719 -4.374445,-0.95005 -1.164166,-0.22286 -2.811093,-0.59866 -3.659837,-0.83512 -0.848744,-0.23645 -1.935721,-0.42992 -2.415504,-0.42992 -0.4797815,0 -1.1188552,-0.18274 -1.4201616,-0.40608 -0.4992189,-0.37005 -0.5083426,-0.44621 -0.1028192,-0.85827 0.3636888,-0.36954 0.595771,-0.39466 1.2699998,-0.13742 0.453744,0.17311 3.174489,0.74368 6.0461,1.26793 2.871611,0.52424 6.046611,1.20798 7.055556,1.51942 1.008944,0.31144 4.310944,1.08033 7.337777,1.70864 3.026834,0.62832 6.836833,1.45774 8.466667,1.84317 1.629833,0.38543 3.217333,0.70204 3.527778,0.70359 1.221898,0.006 6.69512,1.53232 6.838927,1.90708 0.158665,0.41348 -0.276163,1.0373 -0.539488,0.77398 z m 82.263319,-0.85517 c 0.002,-0.27723 0.29805,-0.4039 0.41212,-0.56732 0.3512,-0.50326 2.07793,-1.45239 4.50301,-2.47516 1.80296,-0.76039 2.38206,-0.89962 2.60826,-0.62706 0.42814,0.51588 -0.32615,1.0474 -2.97708,2.09785 -1.25512,0.49736 -2.74737,1.22048 -3.31611,1.60695 -0.91757,0.62351 -1.23403,0.41202 -1.2302,-0.0353 z m 32.21226,-1.56625 c -0.10549,-0.17068 -0.018,-0.47383 0.19437,-0.67365 0.49515,-0.46584 4.49941,-1.44718 7.55843,-1.85238 1.30597,-0.17299 3.14747,-0.56229 4.09222,-0.86512 0.94476,-0.30282 4.00374,-0.8571 6.79774,-1.23172 2.794,-0.37463 5.61134,-0.87027 6.26075,-1.10144 1.02376,-0.36442 1.22536,-0.36656 1.51623,-0.0161 0.4937,0.59488 -0.16027,1.25043 -1.24987,1.25287 -0.48547,0.001 -1.89866,0.24066 -3.14044,0.53239 -1.24178,0.29173 -2.89278,0.61597 -3.66889,0.72054 -1.93703,0.26099 -6.86602,1.22302 -9.6047,1.87462 -1.2468,0.29665 -2.62547,0.53936 -3.06371,0.53936 -0.43823,0 -1.51362,0.17724 -2.38974,0.39387 -2.88861,0.71422 -3.10726,0.74248 -3.30239,0.42675 z m -96.78613,-1.2954 c -1.552222,-0.7037 -3.330222,-1.51222 -3.951111,-1.79671 -1.626952,-0.74548 -7.115293,-3.19218 -10.728209,-4.78262 -1.709516,-0.75255 -3.443216,-1.45235 -3.852666,-1.55512 -1.052469,-0.26415 -2.060485,-1.25007 -1.673621,-1.63694 0.344989,-0.34499 2.004834,0.25935 6.094496,2.21895 4.804946,2.30234 7.624318,3.58433 9.595556,4.36315 8.913571,3.5217 8.450433,3.29248 8.1635,4.04021 -0.248547,0.64771 -0.441505,0.60271 -3.647945,-0.85092 z m 77.34182,-2.27441 c -0.26857,-0.69988 0.57331,-1.28536 3.15462,-2.19386 1.20707,-0.42482 3.52817,-1.38448 5.15801,-2.13256 1.62983,-0.74808 3.97933,-1.75848 5.22111,-2.24532 1.24178,-0.48684 2.63878,-1.11644 3.10444,-1.39912 0.46567,-0.28268 1.67217,-0.85317 2.68111,-1.26776 1.00895,-0.41459 2.46945,-1.07999 3.24556,-1.47868 2.46434,-1.26593 5.1641,-2.26539 5.52193,-2.04424 0.44731,0.27646 0.13783,1.07826 -0.50609,1.31114 -0.45064,0.16299 -10.8035,4.7223 -18.4214,8.11263 -1.62983,0.72536 -4.13976,1.88366 -5.57762,2.57401 -2.89893,1.39184 -3.30724,1.47891 -3.58167,0.76376 z m -13.24735,-2.77767 c -0.24864,-0.64795 -0.19692,-0.69125 3.3376,-2.79379 4.6369,-2.75832 6.48518,-3.6568 7.06485,-3.43436 0.49021,0.18811 0.49038,0.21726 0.004,0.75423 -0.27802,0.30721 -0.62151,0.55856 -0.76332,0.55856 -0.38519,0 -9.08161,4.80721 -9.28153,5.13064 -0.0948,0.1534 -0.25772,0.0565 -0.36202,-0.21528 z m -61.190443,-2.03072 c -2.276534,-1.394 -2.773844,-1.9432 -2.021143,-2.23204 0.738754,-0.28348 4.961845,2.32961 4.8369,2.9929 -0.135349,0.71852 -0.608675,0.59062 -2.815757,-0.76086 z m -6.446415,-4.54069 c -0.535243,-0.43759 -2.292291,-1.66012 -3.904553,-2.71675 -1.612262,-1.05662 -3.326762,-2.26437 -3.81,-2.68389 -0.483238,-0.41952 -1.196114,-0.92506 -1.58417,-1.12343 -0.388055,-0.19836 -1.912055,-1.23881 -3.386666,-2.31211 -1.474612,-1.07329 -3.443112,-2.45297 -4.374445,-3.06595 -0.931333,-0.61298 -3.026833,-2.06189 -4.656666,-3.21979 -1.629834,-1.1579 -3.513049,-2.46029 -4.184924,-2.89421 -0.671875,-0.43391 -2.005375,-1.3882 -2.963333,-2.12064 -0.957959,-0.73244 -2.346901,-1.68494 -3.086538,-2.11667 -0.959135,-0.55985 -1.323345,-0.94049 -1.27,-1.32729 0.111275,-0.80685 0.566722,-0.82 1.646298,-0.0475 1.746329,1.24955 5.436481,3.72753 8.024052,5.38824 1.397,0.8966 3.429,2.35988 4.515556,3.25174 1.086555,0.89185 3.499555,2.60986 5.362222,3.81779 1.862666,1.20793 4.593166,3.10292 6.067777,4.21108 1.474612,1.10817 3.951111,2.86104 5.503334,3.89527 1.552222,1.03423 3.114914,2.1124 3.472651,2.39594 0.631119,0.50022 0.634876,0.52959 0.1265,0.98967 -0.494456,0.44748 -0.578668,0.42939 -1.497095,-0.32146 z m 64.776978,0.5148 c -0.24766,-0.40071 -0.25198,-0.39577 6.77843,-7.74875 9.51202,-9.94847 10.20632,-10.57911 10.72429,-9.74103 0.0944,0.15282 -2.34281,2.89779 -5.41612,6.09993 -3.07332,3.20213 -5.55296,5.94403 -5.5103,6.09311 0.0426,0.14908 -0.0341,0.20206 -0.17056,0.11772 -0.13646,-0.0843 -1.41921,1.11272 -2.85056,2.66013 -2.49471,2.69699 -3.15568,3.1653 -3.55518,2.51889 z m -91.291256,-1.84258 c -1.008945,-0.51339 -2.532945,-1.2048 -3.386667,-1.53647 -0.853722,-0.33166 -3.584222,-1.5336 -6.067777,-2.67097 -7.070733,-3.23812 -12.222232,-5.51456 -13.497129,-5.96437 -1.802965,-0.63613 -2.547672,-1.20139 -2.174755,-1.65073 0.318946,-0.3843 2.016663,0.21213 6.217439,2.18427 5.338619,2.50633 9.550595,4.40995 10.16,4.59186 0.388056,0.11584 1.908587,0.77646 3.378959,1.46805 1.470372,0.69159 3.565872,1.57584 4.656667,1.965 2.90894,1.0378 4.162143,1.78328 3.777304,2.24698 -0.443997,0.53499 -0.988889,0.42231 -3.064041,-0.63362 z m 34.309416,-2.95232 c -1.851987,-1.99656 -3.4844,-3.83944 -3.62758,-4.09529 -0.370527,-0.6621 0.146378,-1.11081 0.847418,-0.73562 1.129013,0.60423 7.232624,7.84108 6.970682,8.26491 -0.340961,0.55169 -0.976632,0.0308 -4.19052,-3.434 z m 73.87793,2.67541 c -0.24777,-0.64569 1.09269,-1.80799 4.70154,-4.07667 1.47462,-0.927 3.15624,-2.03656 3.73695,-2.46569 2.23277,-1.64995 7.58967,-5.34556 9.29492,-6.41236 0.98164,-0.61412 2.69175,-1.83479 3.80024,-2.7126 1.10849,-0.87782 2.82299,-2.08033 3.81,-2.67225 0.98701,-0.59191 3.05102,-1.91124 4.58669,-2.93184 4.64462,-3.08678 4.40479,-2.95778 4.77655,-2.56917 0.25858,0.2703 0.2116,0.42139 -0.209,0.67221 -0.29841,0.17796 -1.56841,1.09121 -2.82223,2.02945 -1.25382,0.93824 -3.04167,2.18022 -3.973,2.75996 -0.93134,0.57973 -3.02684,1.99703 -4.65667,3.14954 -1.62983,1.15251 -3.63575,2.51403 -4.45759,3.02559 -0.82184,0.51157 -3.42534,2.30606 -5.78556,3.98777 -2.36021,1.6817 -5.8788,4.12438 -7.81907,5.42817 -1.94028,1.3038 -3.81197,2.57756 -4.15931,2.83059 -0.58842,0.42865 -0.6447,0.42574 -0.82446,-0.0427 z m -22.0901,-4.60511 c -0.29947,-0.55957 -0.24841,-0.78724 0.37732,-1.68232 0.9572,-1.36921 2.38503,-2.86961 2.73082,-2.86961 0.15223,0 0.35109,0.19365 0.44191,0.43033 0.18005,0.46921 -0.691,1.89839 -2.22512,3.65088 l -0.97858,1.11788 z m -43.841158,-1.81814 c -0.422424,-0.80508 -1.718073,-2.92429 -2.879217,-4.70934 -1.161147,-1.78506 -3.034707,-4.67709 -4.163466,-6.42673 -1.128762,-1.74965 -3.219885,-4.94526 -4.646941,-7.10137 -1.427057,-2.15611 -3.569301,-5.550587 -4.760547,-7.543282 -1.191243,-1.992693 -2.850862,-4.536302 -3.688041,-5.652462 -0.837178,-1.116161 -2.237579,-3.275161 -3.112002,-4.797778 -0.874423,-1.522618 -2.410372,-4.007112 -3.413221,-5.5211 -1.066791,-1.610525 -1.756119,-2.927927 -1.661307,-3.175 0.267666,-0.697525 0.748829,-0.480169 1.170356,0.528684 0.218539,0.523039 0.871423,1.570789 1.450854,2.328334 0.57943,0.757544 1.645832,2.329853 2.36978,3.49402 0.723951,1.164167 2.025758,3.259667 2.892908,4.656667 0.867147,1.397 1.817903,2.8575 2.112789,3.245556 0.294885,0.388055 1.19216,1.785055 1.993945,3.104444 0.801782,1.319389 2.528564,4.04989 3.837288,6.067787 1.308724,2.01789 3.386678,5.25639 4.617675,7.19667 5.428567,8.55642 6.978322,10.97979 8.134965,12.72069 1.330632,2.00279 1.422563,2.29249 0.872383,2.7491 -0.274876,0.22813 -0.542014,-0.0477 -1.128201,-1.16489 z m 49.170298,-4.0202 c -0.50335,-0.6065 -0.0338,-1.49316 3.0132,-5.68976 1.37706,-1.89661 3.51975,-5.05015 4.76153,-7.00786 5.95641,-9.390529 5.77415,-9.146497 6.33057,-8.476055 0.25935,0.312496 -0.0449,0.937689 -1.47501,3.030795 -3.28574,4.80903 -6.67394,9.97246 -9.78627,14.91374 -2.25115,3.57403 -2.40903,3.75328 -2.84402,3.22914 z m -11.99353,-0.47936 c -0.16883,-0.43998 1.83931,-3.9231 2.36233,-4.09744 0.73144,-0.24381 0.59484,0.80649 -0.3266,2.51103 -0.95438,1.76548 -1.7339,2.37295 -2.03573,1.58641 z m -28.306586,-0.58004 c -0.153692,-0.18519 -0.530402,-0.97139 -0.83713,-1.74712 -0.306727,-0.77572 -1.195352,-2.7439 -1.974717,-4.37374 -3.15074,-6.58892 -3.451852,-7.40561 -2.864285,-7.76875 0.524936,-0.32443 1.054806,0.41875 1.846806,2.59029 0.42694,1.17059 0.944555,2.19293 1.150256,2.27187 0.2057,0.0789 0.297259,0.26769 0.203465,0.41945 -0.171074,0.2768 0.790595,2.60969 2.595824,6.29714 0.531932,1.08656 0.966583,2.05722 0.965885,2.15703 -0.0025,0.36562 -0.814848,0.48067 -1.086104,0.15383 z m -29.254048,-4.36049 c -2.017889,-2.10377 -4.726113,-4.84643 -6.018276,-6.09481 -1.292163,-1.24838 -2.592389,-2.61104 -2.889391,-3.02815 -0.474842,-0.66685 -0.489159,-0.80056 -0.118649,-1.10805 0.350475,-0.29087 0.62289,-0.14096 1.619391,0.89116 0.658921,0.68247 3.71458,3.80875 6.790357,6.9473 3.075779,3.13854 5.513033,5.83473 5.416123,5.99153 -0.425794,0.68895 -1.354974,-0.008 -4.799555,-3.59898 z m 51.200684,2.27303 c -0.40386,-0.0953 -0.39976,-0.31822 0.0434,-2.3605 0.26919,-1.2404 0.6537,-2.45321 0.85447,-2.69513 0.33013,-0.39778 0.39663,-0.39665 0.6953,0.0118 0.25437,0.34787 0.23557,0.92119 -0.0818,2.49493 -0.43297,2.14693 -0.77442,2.72277 -1.51141,2.54889 z m -14.148658,-0.74724 c -0.245065,-0.24507 -0.49618,-1.24923 -0.604881,-2.41879 -0.102221,-1.09988 -0.433999,-3.17373 -0.73728,-4.60857 -0.517367,-2.44768 -1.802094,-9.283575 -2.068187,-11.004586 -0.142313,-0.920445 0.4614,-1.910642 0.90124,-1.478192 0.160003,0.157316 0.486182,1.617816 0.724837,3.245555 0.238659,1.627743 0.682778,4.293033 0.986934,5.922873 1.783043,9.55449 1.931154,11.47552 0.797337,10.34171 z m 7.303908,-0.65208 c -0.10349,-0.10348 -0.18815,-2.31043 -0.18815,-4.90433 0,-3.78482 0.0812,-4.78355 0.41097,-5.05727 0.22603,-0.18759 0.54353,-0.25914 0.70555,-0.15901 0.43677,0.26994 0.39583,9.53018 -0.0441,9.97009 -0.38367,0.38367 -0.61224,0.42257 -0.88429,0.15052 z m 17.41085,-3.34181 c -0.0898,-0.23403 0.045,-0.74338 0.29954,-1.13188 0.25455,-0.38849 2.05161,-4.03439 3.99346,-8.10199 1.94184,-4.067603 3.73929,-7.626211 3.99434,-7.908029 0.3853,-0.425755 0.52703,-0.449075 0.83819,-0.137905 0.31117,0.311167 0.0726,0.944928 -1.41092,3.748227 -0.98198,1.85556 -2.91244,5.755007 -4.28991,8.665417 -2.35729,4.98067 -3.01962,5.92178 -3.4247,4.86616 z m 29.31632,-0.46761 c -0.41051,-0.41051 1.17006,-2.21087 8.45562,-9.63138 4.41842,-4.500268 5.34432,-5.317956 5.69353,-5.028139 0.35671,0.296043 0.24664,0.51967 -0.76095,1.546067 -0.64788,0.659983 -2.70197,2.818792 -4.56464,4.797352 -4.94625,5.254 -8.22961,8.64478 -8.37093,8.64478 -0.0682,0 -0.27186,-0.14791 -0.45263,-0.32868 z m -36.83452,-7.76959 c -0.17763,-0.30628 0.21454,-3.500217 0.89424,-7.282856 0.30681,-1.707444 0.69589,-4.280248 0.86462,-5.71734 0.16873,-1.437093 0.54844,-3.723093 0.84379,-5.08 0.81351,-3.737483 1.42812,-7.179778 1.42788,-7.997253 -2.8e-4,-0.915994 0.88073,-1.801562 1.33769,-1.344609 0.19092,0.190921 0.22525,0.549296 0.0875,0.913369 -0.12469,0.329541 -0.37233,1.742166 -0.55032,3.139166 -0.17798,1.397 -0.50772,3.429 -0.73273,4.515556 -0.22502,1.086555 -0.67724,3.817055 -1.00493,6.067778 -0.3277,2.250722 -0.78705,4.940077 -1.02079,5.976346 -0.23375,1.03627 -0.57236,3.003146 -0.75248,4.370833 -0.25335,1.92373 -0.43335,2.50705 -0.79507,2.57651 -0.25717,0.0494 -0.52689,-0.0125 -0.5994,-0.1375 z m -33.448807,-2.11818 c -0.186267,-0.18627 -0.338667,-0.54244 -0.338667,-0.79148 0,-0.477197 -1.934032,-5.452899 -3.509865,-9.029863 -0.512874,-1.164166 -1.093303,-2.624666 -1.289845,-3.245555 -0.19654,-0.620889 -0.67581,-1.763889 -1.065042,-2.54 -0.925963,-1.84633 -2.069222,-5.223634 -1.874771,-5.538264 0.416927,-0.6746 0.983742,-0.06838 1.681886,1.798819 0.420771,1.125361 1.267463,3.316111 1.881533,4.868334 0.614071,1.552222 1.858101,4.756799 2.764511,7.121282 0.90641,2.364484 1.964354,4.990034 2.35099,5.83456 0.386636,0.844527 0.629773,1.608707 0.540306,1.698167 -0.265433,0.26544 -0.778784,0.18625 -1.141036,-0.176 z m 64.653957,-5.901606 c -0.30979,-0.309792 0.92326,-2.351036 5.86266,-9.705292 0.93828,-1.397 2.20228,-3.302001 2.8089,-4.233334 1.84327,-2.829937 2.36061,-3.373396 2.75682,-2.895994 0.27504,0.331401 0.11581,0.725729 -0.83822,2.075888 -0.64776,0.916725 -3.18854,4.683023 -5.64617,8.369551 -2.45763,3.686528 -4.50486,6.702778 -4.5494,6.702778 -0.0445,0 -0.22211,-0.14112 -0.39459,-0.313597 z m -40.66747,-5.406849 c -0.20635,-0.248633 -0.37807,-3.592908 -0.50426,-9.820611 -0.16656,-8.219477 -0.13634,-9.489251 0.2331,-9.795858 0.33949,-0.281759 0.48176,-0.28096 0.71073,0.004 0.17636,0.219467 0.32619,4.085066 0.39022,10.067546 0.10374,9.692136 0.0268,10.577078 -0.82979,9.544934 z M 90.516659,88.696197 c -0.14473,-0.281003 -0.34951,-1.399915 -0.45507,-2.486471 -0.105559,-1.086556 -0.383475,-2.801056 -0.617586,-3.81 -0.718916,-3.098256 -2.088583,-10.813645 -2.088772,-11.766123 -1.92e-4,-0.975534 0.438508,-1.454747 0.904849,-0.988405 0.160274,0.160272 0.53182,1.920856 0.825658,3.91241 0.293839,1.991553 0.72223,4.573506 0.951978,5.737673 0.229749,1.164167 0.683568,3.704167 1.008488,5.644445 0.324922,1.940278 0.611584,3.647235 0.637029,3.793239 0.08784,0.503987 -0.904164,0.472721 -1.166574,-0.03677 z"
       id="path985"
       inkscape:connector-curvature="0"
       sodipodi:nodetypes="csccsccccccccscccccccscccccccccscscccscccscsccccscscsccccccccccscccccsccsccccccccscccsccscccccccsccccscccccscccsccsscscscscscssccccsccccscccsccscsccccsccccccccccscscscscccccsccccsccsscscccsccsccsccscscscscccccccccccsccccsccccccccccccccccccccccscccccccccccccssccssscssccccccccscccsscscsssscccssscsscccccscccscccsscccc"
       inkscape:export-xdpi="96"
       inkscape:export-ydpi="96" />
    <rect
       style="opacity:1;fill:#2d2d12;fill-opacity:1;stroke:none;stroke-width:0.14402337;stroke-linecap:round;stroke-linejoin:round;stroke-miterlimit:4;stroke-dasharray:none;stroke-dashoffset:0;stroke-opacity:0.00975611;paint-order:markers stroke fill"
       id="rect840-1-0-5-1-9-4-5-0-1"
       width="5.6345749"
       height="0.34664002"
       x="88.087173"
       y="131.65393"
       ry="0.1733198"
       inkscape:export-xdpi="96"
       inkscape:export-ydpi="96" />
    <rect
       style="opacity:1;fill:#2d2d12;fill-opacity:1;stroke:none;stroke-width:0.07678339;stroke-linecap:round;stroke-linejoin:round;stroke-miterlimit:4;stroke-dasharray:none;stroke-dashoffset:0;stroke-opacity:0.00975611;paint-order:markers stroke fill"
       id="rect840-1-0-5-1-9-4-5-0-1-1"
       width="1.776776"
       height="0.31244668"
       x="91.953781"
       y="128.82895"
       ry="0.15622315"
       inkscape:export-xdpi="96"
       inkscape:export-ydpi="96" />
    <rect
       style="opacity:0.98500001;fill:#000000;fill-opacity:0;stroke:#008bf3;stroke-width:2.36759973;stroke-linecap:round;stroke-linejoin:round;stroke-miterlimit:4;stroke-dasharray:none;stroke-dashoffset:0;stroke-opacity:0.00975611;paint-order:markers stroke fill"
       id="rect6318"
       width="206.71074"
       height="154.50793"
       x="-3.2098954"
       y="65.89444"
       ry="0.91877639"
       inkscape:export-xdpi="96"
       inkscape:export-ydpi="96" />
  </g>
</svg>
